<?xml version="1.0" standalone="no"?>
<!DOCTYPE svg PUBLIC "-//W3C//DTD SVG 20010904//EN"
 "http://www.w3.org/TR/2001/REC-SVG-20010904/DTD/svg10.dtd">
<svg version="1.0" xmlns="http://www.w3.org/2000/svg"
 width="266.000000pt" height="266.000000pt" viewBox="0 0 266.000000 266.000000"
 preserveAspectRatio="xMidYMid meet">
<metadata>
Created by potrace 1.11, written by Peter Selinger 2001-2013
</metadata>
<g transform="translate(0.000000,266.000000) scale(0.100000,-0.100000)"
fill="#000000" stroke="none">
<path d="M1226 2626 c-86 -87 -177 -261 -162 -308 3 -7 7 -57 10 -111 4 -86 3
-98 -10 -93 -9 3 -19 6 -23 6 -5 0 -22 23 -40 51 -25 40 -31 61 -31 104 0 84
32 171 90 243 53 64 56 82 15 82 -41 0 -71 -17 -93 -54 -34 -58 -73 -176 -79
-242 -5 -53 -2 -69 22 -120 15 -33 41 -75 56 -94 51 -62 35 -73 -58 -41 -65
22 -82 36 -104 86 -26 56 -25 136 3 184 29 50 20 74 -22 59 -42 -14 -60 -45
-67 -112 -12 -119 48 -235 136 -261 13 -4 43 -19 67 -33 35 -21 45 -34 54 -70
6 -25 9 -46 8 -48 -2 -1 -24 6 -48 18 -56 25 -145 34 -185 18 -28 -11 -28 -13
-10 -20 15 -7 9 -9 -23 -9 -61 -1 -204 -58 -200 -79 2 -9 17 -20 33 -23 28 -6
28 -7 4 -8 -44 -2 -133 -32 -156 -53 -40 -37 -82 -132 -94 -212 -14 -91 -11
-97 60 -104 91 -8 111 1 158 70 23 35 49 81 57 102 9 22 19 37 21 34 3 -3 1
-18 -6 -34 -6 -16 -12 -36 -14 -44 -3 -8 -7 -25 -11 -37 -10 -34 21 -30 82 11
56 38 105 95 122 141 l10 30 1 -32 c1 -26 4 -30 21 -26 11 3 46 30 78 59 52
49 91 74 63 40 -6 -8 -15 -33 -19 -57 -6 -36 -12 -44 -36 -50 -43 -12 -63 -35
-82 -100 -15 -50 -22 -60 -48 -69 -23 -8 -40 -26 -64 -70 -24 -44 -42 -64 -66
-74 -41 -17 -72 -50 -81 -84 -3 -14 -14 -33 -24 -41 -23 -21 -87 -119 -100
-154 -16 -40 -14 -127 4 -177 10 -29 12 -47 5 -60 -26 -49 4 -150 45 -150 7 0
41 -21 76 -46 62 -46 63 -46 128 -42 36 3 82 12 101 21 l35 15 -85 1 c-47 1
-92 5 -100 11 -23 14 -5 22 23 9 21 -10 34 -7 84 16 32 15 72 31 88 35 l30 7
-28 12 c-42 16 -74 14 -106 -10 -41 -30 -102 -19 -136 25 -14 18 -25 37 -25
43 0 5 -13 22 -30 38 -16 16 -30 35 -30 43 0 8 -8 24 -19 37 -33 43 -9 195 34
211 7 3 19 19 25 35 7 16 21 34 31 40 10 5 26 24 35 42 15 30 59 77 73 77 3 0
17 19 31 41 16 26 42 50 72 65 49 25 78 57 78 87 0 18 5 21 51 31 22 5 34 21
63 82 38 78 86 138 94 116 2 -6 -12 -60 -31 -119 -49 -151 -75 -249 -82 -313
-11 -92 11 -253 51 -375 78 -238 141 -312 352 -413 l97 -47 173 1 c163 0 172
-1 172 -19 0 -22 -21 -97 -57 -210 -30 -91 -26 -120 19 -143 60 -31 241 -1
333 56 65 40 80 93 49 170 -24 59 -43 66 -104 35 -28 -14 -75 -41 -105 -60
-68 -44 -79 -45 -71 -2 18 87 27 169 24 213 l-3 49 -35 -2 c-364 -21 -345 -31
-263 138 33 68 69 132 79 141 41 36 227 89 246 70 7 -7 14 -68 17 -158 l6
-146 33 -29 c27 -24 41 -29 85 -29 66 1 197 55 251 104 l39 35 -6 67 c-4 36
-12 73 -19 81 -22 27 -79 9 -169 -51 -46 -31 -92 -56 -102 -56 -22 0 -37 38
-37 96 0 58 -28 170 -46 185 -11 9 -29 8 -77 -5 -272 -71 -337 -72 -457 -9
-105 55 -182 129 -224 217 -19 39 -38 86 -41 104 l-7 33 49 -31 c26 -17 71
-49 98 -71 136 -107 243 -78 467 128 38 34 77 64 87 68 21 7 103 -40 240 -137
62 -44 89 -58 106 -54 31 8 81 75 69 92 -5 8 -79 49 -164 92 -141 70 -157 81
-173 115 -19 42 -83 77 -139 77 -45 0 -87 30 -109 77 -30 65 -93 90 -149 59
-22 -13 -29 -11 -82 25 -60 41 -65 48 -48 65 5 5 15 37 21 69 20 111 -25 219
-109 260 -23 11 -42 26 -42 33 0 20 67 76 98 82 25 5 67 -9 169 -57 24 -11 36
-12 53 -3 40 21 21 50 -60 92 -128 65 -210 50 -286 -52 -33 -45 -44 -50 -44
-17 0 22 24 65 43 78 5 3 7 9 5 12 -1 3 14 23 34 46 38 41 44 43 153 56 58 8
85 28 85 63 0 25 0 25 -72 17 -138 -13 -196 -46 -265 -153 -22 -34 -36 -70
-40 -103 -9 -73 -26 -55 -40 42 -14 96 -3 157 42 223 14 20 25 41 25 45 0 11
64 69 113 101 44 30 46 37 11 50 -43 17 -64 11 -98 -24z m215 -992 c78 -47
104 -94 96 -173 -6 -63 -33 -137 -52 -145 -13 -5 -128 51 -223 107 -61 36 -92
89 -92 155 l0 42 53 0 c34 0 69 8 102 24 28 14 52 25 54 25 2 1 30 -15 62 -35z
m320 -195 c10 -15 19 -34 19 -43 0 -41 -213 -208 -280 -219 -39 -7 -108 24
-175 78 -80 65 -106 88 -102 91 4 4 58 -23 132 -67 77 -45 111 -59 149 -59 28
0 37 6 54 34 30 51 52 137 52 203 0 33 3 63 6 66 11 11 124 -54 145 -84z"/>
</g>
</svg>
